<?xml version="1.0" encoding="UTF-8" standalone="no"?>
<!DOCTYPE svg PUBLIC "-//W3C//DTD SVG 1.1//EN" "http://www.w3.org/Graphics/SVG/1.1/DTD/svg11.dtd">
<!-- Generated by Microsoft Visio, SVG Export naming.svg Page-1 -->
<svg xmlns="http://www.w3.org/2000/svg" xmlns:xlink="http://www.w3.org/1999/xlink"
		xmlns:v="http://schemas.microsoft.com/visio/2003/SVGExtensions/" width="8.60048in" height="2.35953in"
		viewBox="0 0 619.235 169.886" xml:space="preserve" color-interpolation-filters="sRGB" class="st9">
	<v:documentProperties v:langID="1033" v:metric="true" v:viewMarkup="false">
		<v:userDefs>
			<v:ud v:nameU="msvSubprocessMaster" v:prompt="" v:val="VT4(Rectangle)"/>
			<v:ud v:nameU="msvNoAutoConnect" v:val="VT0(1):26"/>
		</v:userDefs>
	</v:documentProperties>

	<style type="text/css">
	<![CDATA[
		.st1 {fill:none;stroke:none;stroke-width:0.25}
		.st2 {fill:#5b9bd5;font-family:Calibri;font-size:1.5em}
		.st3 {stroke:#5b9bd5;stroke-linecap:round;stroke-linejoin:round;stroke-width:1}
		.st4 {fill:#ffffff;stroke:none;stroke-linecap:butt;stroke-width:7.2}
		.st5 {fill:#4f87bb;font-family:Calibri;font-size:1.00001em}
		.st6 {fill:#5b9bd5;font-family:Calibri;font-size:1.00001em}
		.st7 {marker-end:url(#mrkr4-22);stroke:#5b9bd5;stroke-linecap:round;stroke-linejoin:round;stroke-width:1}
		.st8 {fill:#5b9bd5;fill-opacity:1;stroke:#5b9bd5;stroke-opacity:1;stroke-width:0.28409090909091}
		.st9 {fill:none;fill-rule:evenodd;font-size:12px;overflow:visible;stroke-linecap:square;stroke-miterlimit:3}
	]]>
	</style>

	<defs id="Markers">
		<g id="lend4">
			<path d="M 2 1 L 0 0 L 2 -1 L 2 1 " style="stroke:none"/>
		</g>
		<marker id="mrkr4-22" class="st8" v:arrowType="4" v:arrowSize="2" v:setback="7.04" refX="-7.04" orient="auto"
				markerUnits="strokeWidth" overflow="visible">
			<use xlink:href="#lend4" transform="scale(-3.52,-3.52) "/>
		</marker>
	</defs>
	<g v:mID="0" v:index="1" v:groupContext="foregroundPage">
		<v:userDefs>
			<v:ud v:nameU="msvThemeOrder" v:val="VT0(0):26"/>
		</v:userDefs>
		<title>Page-1</title>
		<v:pageProperties v:drawingScale="0.0393701" v:pageScale="0.0393701" v:drawingUnits="24" v:shadowOffsetX="8.50394"
				v:shadowOffsetY="-8.50394"/>
		<v:layer v:name="Connector" v:index="0"/>
		<g id="shape1-1" v:mID="1" v:groupContext="shape" transform="translate(18.25,-67.9383)">
			<title>Sheet.1</title>
			<desc>target::my.strange[2].path/otherTarget::simplePath/something</desc>
			<v:textBlock v:margins="rect(4,4,4,4)" v:tabSpace="42.5197"/>
			<v:textRect cx="291.367" cy="159.886" width="582.74" height="20"/>
			<rect x="0" y="149.886" width="582.735" height="20" class="st1"/>
			<text x="59.37" y="165.29" class="st2" v:langID="1033"><v:paragraph v:horizAlign="1"/><v:tabList/>target::my.strange[2].path/otherTarget::simplePath/something</text>		</g>
		<g id="shape2-4" v:mID="2" v:groupContext="shape" transform="translate(269.331,271.833) rotate(180)">
			<title>Bracket</title>
			<desc>segment</desc>
			<v:userDefs>
				<v:ud v:nameU="visVersion" v:val="VT0(15):26"/>
			</v:userDefs>
			<v:textBlock v:margins="rect(1,3,1,1)" v:tabSpace="42.5197"/>
			<v:textRect cx="113.386" cy="155.713" width="70.87" height="70.8661" transform="rotate(180)"/>
			<path d="M0 169.89 A4.01075 4.01075 0 0 1 3.54 166.34 L94.47 166.34 A4.01075 4.01075 -180 0 0 98.01 162.8 A4.01075 4.01075
						 -180 0 0 101.55 166.34 L189.05 166.34 A4.01075 4.01075 0 0 1 192.59 169.89" class="st3"/>
			<rect v:rectContext="textBkgnd" x="-123.147" y="-162.913" width="42.1938" height="14.4001" transform="rotate(180)"
					class="st4"/>
			<text x="-123.15" y="-152.11" transform="rotate(180)" class="st5" v:langID="1033"><v:paragraph v:horizAlign="2"/><v:tabList/>segment</text>		</g>
		<g id="shape5-9" v:mID="5" v:groupContext="shape" transform="translate(132.601,-87.9383)">
			<title>Bracket.5</title>
			<desc>name</desc>
			<v:userDefs>
				<v:ud v:nameU="visVersion" v:val="VT0(15):26"/>
			</v:userDefs>
			<v:textBlock v:margins="rect(1,3,1,1)" v:tabSpace="42.5197"/>
			<v:textRect cx="54.7602" cy="155.713" width="70.87" height="70.8661"/>
			<path d="M0 169.89 A4.01075 4.01075 0 0 1 3.54 166.34 L68.59 166.34 A4.01075 4.01075 -180 0 0 72.13 162.8 A4.01075 4.01075
						 -180 0 0 75.67 166.34 L138.19 166.34 A4.01075 4.01075 0 0 1 141.73 169.89" class="st3"/>
			<rect v:rectContext="textBkgnd" x="59.5835" y="148.512" width="27.6097" height="14.4001" class="st4"/>
			<text x="59.58" y="159.31" class="st5" v:langID="1033"><v:paragraph v:horizAlign="2"/><v:tabList/>name</text>		</g>
		<g id="shape11-14" v:mID="11" v:groupContext="shape" transform="translate(269.331,-131.636)">
			<title>Sheet.11</title>
			<desc>target</desc>
			<v:textBlock v:margins="rect(4,4,4,4)" v:tabSpace="42.5197"/>
			<v:textRect cx="76" cy="159.886" width="152" height="20"/>
			<rect x="0" y="149.886" width="152" height="20" class="st1"/>
			<text x="61.21" y="163.49" class="st6" v:langID="1033"><v:paragraph v:horizAlign="1"/><v:tabList/>target</text>		</g>
		<g id="shape13-17" v:mID="13" v:groupContext="shape" v:layerMember="0" transform="translate(340.197,-131.636)">
			<title>Dynamic connector</title>
			<path d="M0 169.89 L-24.52 207.68" class="st7"/>
		</g>
		<g id="shape14-23" v:mID="14" v:groupContext="shape" transform="translate(411.063,-18.25)">
			<title>Sheet.14</title>
			<desc>default target</desc>
			<v:textBlock v:margins="rect(4,4,4,4)" v:tabSpace="42.5197"/>
			<v:textRect cx="76" cy="159.886" width="152" height="20"/>
			<rect x="0" y="149.886" width="152" height="20" class="st1"/>
			<text x="42.47" y="163.49" class="st6" v:langID="1033"><v:paragraph v:horizAlign="1"/><v:tabList/>default target</text>		</g>
		<g id="shape16-26" v:mID="16" v:groupContext="shape" v:layerMember="0" transform="translate(481.929,-38.25)">
			<title>Dynamic connector.16</title>
			<path d="M0 169.89 L-11.14 146.55" class="st7"/>
		</g>
	</g>
</svg>
